<?xml version="1.0" encoding="iso-8859-1"?>
<!-- Generator: Adobe Illustrator 19.0.0, SVG Export Plug-In . SVG Version: 6.00 Build 0)  -->
<svg version="1.1" id="Capa_1" xmlns="http://www.w3.org/2000/svg" xmlns:xlink="http://www.w3.org/1999/xlink" x="0px" y="0px"
	 viewBox="0 0 512.001 512.001" style="enable-background:new 0 0 512.001 512.001;" xml:space="preserve">
<g>
	<g>
		<path d="M373.829,138.171c-5.94-5.94-15.273-5.94-21.213,0c-5.94,5.94-5.94,15.272,0,21.213c5.94,5.94,15.273,5.94,21.213,0
			S379.769,144.111,373.829,138.171z"/>
	</g>
</g>
<g>
	<g>
		<path d="M225.337,201.81c-5.94-5.94-15.273-5.94-21.213,0c-5.939,5.939-5.94,15.273,0,21.213c5.94,5.941,15.274,5.939,21.213,0
			C231.277,217.083,231.277,207.75,225.337,201.81z"/>
	</g>
</g>
<g>
	<g>
		<path d="M246.55,350.303c-5.94-5.94-15.273-5.94-21.213,0c-5.939,5.939-5.94,15.273,0,21.213s15.274,5.939,21.213,0
			C252.491,365.575,252.491,356.243,246.55,350.303z"/>
	</g>
</g>
<g>
	<g>
		<path d="M500.896,213.478l-33.94-135.765c-0.849-2.97-1.908-5.728-3.182-8.273l-60.034,60.034
			c7.85,16.758,5.092,37.334-8.697,51.123c-17.606,17.606-46.032,17.607-63.64,0c-17.607-17.607-17.606-46.034,0-63.64
			c13.789-13.789,34.365-16.547,51.123-8.697l60.034-60.034c-2.545-1.274-5.303-2.333-8.273-3.182l-135.765-33.94
			c-15.272-3.818-31.606,0.636-42.85,11.879L13.205,265.45c-17.606,17.606-17.607,46.032,0,63.64l169.706,169.706
			c17.607,17.607,46.034,17.606,63.64,0l242.466-242.468C500.261,245.084,504.715,228.75,500.896,213.478z M182.911,180.597
			c17.607-17.607,46.032-17.607,63.64,0c17.608,17.607,17.607,46.032,0,63.64c-17.606,17.606-46.032,17.607-63.64,0
			C165.303,226.63,165.305,198.203,182.911,180.597z M267.764,392.729c-17.607,17.606-46.033,17.607-63.64,0s-17.606-46.034,0-63.64
			c17.607-17.607,46.032-17.607,63.64,0C285.371,346.696,285.371,375.121,267.764,392.729z M322.454,290.972l-190.919,21.213
			c-4.713,0.508-9.157-1.201-12.274-4.319c-2.32-2.32-3.905-5.417-4.299-8.939c-0.901-8.234,5.024-15.651,13.258-16.573
			l190.919-21.213c8.224-0.87,15.651,5.024,16.573,13.258C336.613,282.634,330.689,290.05,322.454,290.972z"/>
	</g>
</g>
<g>
	<g>
		<path d="M507.545,4.455c-5.94-5.94-15.273-5.94-21.213,0L442.56,48.227c9.546,4.455,16.97,11.879,21.213,21.213l43.772-43.772
			C513.485,19.728,513.485,10.395,507.545,4.455z"/>
	</g>
</g>
<g>
</g>
<g>
</g>
<g>
</g>
<g>
</g>
<g>
</g>
<g>
</g>
<g>
</g>
<g>
</g>
<g>
</g>
<g>
</g>
<g>
</g>
<g>
</g>
<g>
</g>
<g>
</g>
<g>
</g>
</svg>
