<svg id="Layer_1" enable-background="new 0 0 512 512" height="512" viewBox="0 0 512 512" width="512" xmlns="http://www.w3.org/2000/svg"><g id="XMLID_859_"><g id="XMLID_394_"><path id="XMLID_703_" d="m467.843 377.278c-.143-20.749-10.142-40.232-26.345-52.613 14.76-17.871 23.037-40.551 23.037-63.915 0-55.278-44.972-100.25-100.25-100.25s-100.25 44.972-100.25 100.25c0 23.364 8.277 46.044 23.037 63.915-12.624 9.646-21.48 23.604-24.847 39.112-12.173-8.143-26.589-12.61-41.547-12.61h-34.344v-15.82c17.533-12.85 28.618-34.591 28.618-60.249v-25.893c10.783-6.674 17.985-18.606 17.985-32.192 0-17.781-12.484-32.855-29.146-36.814-4.9-15.386-19.454-26.524-36.15-26.524-7.157 0-13.999 1.965-19.924 5.641-5.924-3.676-12.766-5.641-19.924-5.641-16.696 0-31.25 11.139-36.15 26.524-16.663 3.959-29.147 19.033-29.147 36.814 0 13.587 7.202 25.519 17.985 32.192v31.36c0 22.709 11.328 42.809 28.618 54.988v15.613h-34.346c-41.219.001-74.753 33.535-74.753 74.754v76.08c0 5.522 4.477 10 10 10h309.285c5.523 0 10-4.478 10-10s-4.477-10-10-10h-82.715v-40.98c0-35.119 28.571-63.69 63.69-63.69h27.683c3.782 16.577 18.635 28.989 36.343 28.989 17.707 0 32.56-12.412 36.342-28.989h27.683c35.119 0 63.69 28.571 63.69 63.69v40.98h-82.715c-5.523 0-10 4.478-10 10s4.477 10 10 10h92.714c5.523 0 10-4.478 10-10v-50.98c0-31.857-17.895-59.606-44.157-73.742zm-183.808-116.528c0-44.25 36-80.25 80.25-80.25s80.25 36 80.25 80.25c0 17.833-5.72 34.621-16.289 48.47.389-2.859.607-5.772.607-8.736v-26.817c0-5.522-4.477-10-10-10-16.067 0-31.039-6.412-42.017-17.796 2.908-4.8 5.342-9.956 7.201-15.429 1.776-5.229-1.023-10.908-6.252-12.685-5.231-1.777-10.909 1.023-12.685 6.253-8.057 23.72-30.313 39.656-55.383 39.656-5.523 0-10 4.478-10 10v26.817c0 2.964.219 5.877.607 8.736-10.569-13.848-16.289-30.636-16.289-48.469zm80.25 84.303c-24.575 0-44.568-19.993-44.568-44.568v-17.463c17.003-2.174 32.572-9.821 44.567-21.413 12.17 11.83 27.698 19.303 44.568 21.427v17.45c.001 24.574-19.993 44.567-44.567 44.567zm-264.179-145.868c5.146-.063 9.403-4.021 9.841-9.147.784-9.176 8.622-16.363 17.844-16.363 4.846 0 9.386 1.908 12.786 5.373 1.88 1.916 4.453 2.996 7.138 2.996s5.257-1.08 7.138-2.996c3.4-3.465 7.941-5.373 12.786-5.373 9.222 0 17.061 7.188 17.844 16.363.438 5.127 4.696 9.085 9.841 9.147 9.711.119 17.611 8.117 17.611 17.828 0 9.835-8.001 17.836-17.836 17.836-6.226 0-11.903-3.171-15.186-8.482-1.822-2.948-5.041-4.742-8.506-4.742-3.466 0-6.685 1.795-8.506 4.743-3.283 5.311-8.959 8.481-15.186 8.481-6.226 0-11.903-3.171-15.186-8.482-1.822-2.948-5.041-4.742-8.506-4.742-3.466 0-6.685 1.795-8.506 4.743-3.283 5.311-8.959 8.481-15.186 8.481-9.835 0-17.836-8.001-17.836-17.836 0-9.711 7.901-17.709 17.611-17.828zm.373 55.66c8.749-.033 16.976-3.011 23.543-8.302 6.605 5.321 14.888 8.306 23.692 8.306 8.805 0 17.088-2.984 23.692-8.306 6.568 5.291 14.795 8.269 23.543 8.302v20.252c0 30.538-19.866 52.703-47.236 52.703-26.046 0-47.236-21.189-47.236-47.235v-25.72zm47.236 92.956c6.513 0 12.745-.922 18.618-2.624v17.778c0 10.266-8.352 18.618-18.618 18.618s-18.618-8.353-18.618-18.618v-17.797c5.917 1.708 12.159 2.643 18.618 2.643zm68.854 103.219v40.98h-196.569v-66.08c0-30.19 24.562-54.753 54.753-54.753h35.232c3.776 17.361 19.254 30.406 37.73 30.406s33.955-13.045 37.731-30.406h35.232c11.818 0 23.17 3.814 32.501 10.703-22.082 15.082-36.61 40.448-36.61 69.15zm64.867-81.53c2.568-14.602 11.902-27.121 25.63-33.768.811-.392 1.547-.895 2.209-1.474 4.578 7.432 10.625 13.861 17.725 18.902v14.179h-26.741c-6.473 0-12.768.763-18.823 2.161zm82.849 26.828c-9.531 0-17.284-7.753-17.284-17.283v-16.351c5.505 1.532 11.297 2.368 17.284 2.368s11.779-.836 17.284-2.368v16.351c-.001 9.53-7.754 17.283-17.284 17.283zm37.283-28.989v-14.178c7.101-5.041 13.147-11.47 17.726-18.903.663.578 1.399 1.081 2.209 1.474 13.728 6.648 23.063 19.166 25.63 33.768-6.055-1.398-12.35-2.161-18.824-2.161z"/><path id="XMLID_712_" d="m364.28 492c-2.63 0-5.2 1.069-7.07 2.93-1.86 1.86-2.93 4.44-2.93 7.07s1.07 5.21 2.93 7.069c1.86 1.86 4.44 2.931 7.07 2.931 2.64 0 5.21-1.07 7.08-2.931 1.86-1.859 2.92-4.439 2.92-7.069s-1.06-5.21-2.92-7.07c-1.87-1.861-4.44-2.93-7.08-2.93z"/><path id="XMLID_716_" d="m185.517 78.721 24.717 17.875-9.454 28.881c-2.741 8.374.094 17.132 7.223 22.312 7.129 5.181 16.334 5.171 23.452-.025l24.545-17.917 24.546 17.916c3.565 2.603 7.653 3.903 11.742 3.903 4.075 0 8.151-1.293 11.709-3.878 7.129-5.18 9.964-13.938 7.223-22.312l-9.454-28.881 24.717-17.876c7.132-5.158 9.988-13.901 7.278-22.274-2.711-8.374-10.149-13.784-18.951-13.784h-30.526l-9.332-28.868c-2.707-8.379-10.147-13.793-18.952-13.793s-16.245 5.414-18.953 13.792l-9.332 28.869h-30.526c-8.801 0-16.24 5.41-18.951 13.784-2.71 8.373.147 17.117 7.279 22.276zm49.475-16.06c4.338 0 8.181-2.797 9.515-6.924l11.493-35.554 11.493 35.555c1.334 4.127 5.177 6.924 9.515 6.924h37.552l-30.428 22.005c-3.524 2.549-4.997 7.082-3.644 11.215l11.646 35.58-30.239-22.071c-1.756-1.282-3.826-1.923-5.896-1.923s-4.139.641-5.896 1.923l-30.239 22.071 11.646-35.58c1.353-4.133-.12-8.666-3.644-11.215l-30.426-22.006z"/></g></g></svg>