<?xml version="1.0" encoding="iso-8859-1"?>
<!-- Generator: Adobe Illustrator 19.0.0, SVG Export Plug-In . SVG Version: 6.00 Build 0)  -->
<svg version="1.1" id="Capa_1" xmlns="http://www.w3.org/2000/svg" xmlns:xlink="http://www.w3.org/1999/xlink" x="0px" y="0px"
	 viewBox="0 0 512 512" style="enable-background:new 0 0 512 512;" xml:space="preserve">
<g>
	<g>
		<path d="M87.501,46.5c-22.607,0-41,18.393-41,41s18.393,41,41,41c22.608,0,41-18.393,41-41S110.108,46.5,87.501,46.5z
			 M87.501,108.499c-11.58,0-21-9.42-21-21c0-11.58,9.42-21,21-21c11.58,0,21,9.42,21,21
			C108.501,99.079,99.081,108.499,87.501,108.499z"/>
	</g>
</g>
<g>
	<g>
		<path d="M165.001,77.499h-14c-5.523,0-10,4.477-10,10s4.477,10,10,10h14c5.523,0,10-4.477,10-10S170.524,77.499,165.001,77.499z"
			/>
	</g>
</g>
<g>
	<g>
		<path d="M24.002,77.499h-14c-5.523,0-10,4.477-10,10s4.477,10,10,10h14c5.523,0,10-4.477,10-10S29.525,77.499,24.002,77.499z"/>
	</g>
</g>
<g>
	<g>
		<path d="M87.501,140.999c-5.523,0-10,4.477-10,10v14c0,5.523,4.477,10,10,10c5.523,0,10-4.477,10-10v-14
			C97.501,145.476,93.024,140.999,87.501,140.999z"/>
	</g>
</g>
<g>
	<g>
		<path d="M87.501,0c-5.523,0-10,4.477-10,10v14c0,5.523,4.477,10,10,10c5.523,0,10-4.477,10-10V10C97.501,4.477,93.024,0,87.501,0z
			"/>
	</g>
</g>
<g>
	<g>
		<path d="M149.374,135.228l-9.899-9.899c-3.906-3.905-10.238-3.906-14.143,0c-3.905,3.906-3.905,10.238,0,14.143l9.899,9.899
			c1.952,1.953,4.512,2.929,7.071,2.929c2.559,0,5.119-0.976,7.072-2.929C153.279,145.465,153.279,139.133,149.374,135.228z"/>
	</g>
</g>
<g>
	<g>
		<path d="M49.673,35.527l-9.899-9.899c-3.906-3.905-10.238-3.906-14.143,0c-3.905,3.906-3.905,10.238,0,14.143l9.899,9.899
			c1.952,1.953,4.512,2.929,7.071,2.929c2.559,0,5.118-0.976,7.072-2.929C53.578,45.764,53.578,39.432,49.673,35.527z"/>
	</g>
</g>
<g>
	<g>
		<path d="M49.672,125.329c-3.906-3.905-10.238-3.905-14.143,0l-9.899,9.899c-3.905,3.906-3.905,10.238,0,14.143
			c1.952,1.953,4.512,2.929,7.071,2.929s5.119-0.976,7.072-2.929l9.899-9.899C53.577,135.566,53.578,129.234,49.672,125.329z"/>
	</g>
</g>
<g>
	<g>
		<path d="M149.374,25.628c-3.906-3.905-10.238-3.905-14.143,0l-9.899,9.899c-3.905,3.906-3.905,10.238,0,14.143
			c1.952,1.953,4.512,2.929,7.071,2.929s5.118-0.976,7.072-2.929l9.899-9.899C153.279,35.865,153.28,29.533,149.374,25.628z"/>
	</g>
</g>
<g>
	<g>
		<path d="M82.231,454.871c-1.87-1.861-4.44-2.931-7.08-2.931c-2.63,0-5.2,1.071-7.07,2.931c-1.86,1.859-2.93,4.439-2.93,7.069
			s1.07,5.21,2.93,7.07c1.87,1.861,4.44,2.93,7.07,2.93c2.64,0,5.21-1.069,7.08-2.93c1.86-1.87,2.93-4.44,2.93-7.07
			S84.091,456.73,82.231,454.871z"/>
	</g>
</g>
<g>
	<g>
		<path d="M146.061,494.93c-1.86-1.861-4.44-2.93-7.07-2.93s-5.21,1.07-7.07,2.93s-2.93,4.44-2.93,7.07c0,2.63,1.07,5.21,2.93,7.069
			c1.86,1.861,4.43,2.931,7.07,2.931c2.63,0,5.21-1.07,7.07-2.931c1.86-1.859,2.93-4.439,2.93-7.069
			C148.991,499.37,147.921,496.79,146.061,494.93z"/>
	</g>
</g>
<g>
	<g>
		<path d="M233.92,485.26c-1.86-1.861-4.44-2.93-7.07-2.93c-2.64,0-5.21,1.07-7.07,2.93c-1.87,1.86-2.93,4.44-2.93,7.07
			s1.06,5.21,2.93,7.069c1.86,1.87,4.43,2.931,7.07,2.931c2.63,0,5.21-1.06,7.07-2.931c1.86-1.859,2.93-4.439,2.93-7.069
			S235.78,487.121,233.92,485.26z"/>
	</g>
</g>
<g>
	<g>
		<path d="M409.629,485.26c-1.86-1.861-4.43-2.93-7.07-2.93c-2.63,0-5.21,1.07-7.07,2.93s-2.93,4.44-2.93,7.07s1.07,5.21,2.93,7.069
			c1.87,1.87,4.44,2.931,7.07,2.931c2.64,0,5.21-1.06,7.07-2.931c1.87-1.859,2.93-4.429,2.93-7.069
			C412.559,489.7,411.499,487.12,409.629,485.26z"/>
	</g>
</g>
<g>
	<g>
		<path d="M321.78,494.93c-1.87-1.861-4.44-2.93-7.08-2.93c-2.63,0-5.2,1.07-7.07,2.93c-1.86,1.86-2.92,4.44-2.92,7.07
			c0,2.63,1.06,5.21,2.92,7.069c1.86,1.861,4.44,2.931,7.07,2.931c2.64,0,5.21-1.07,7.08-2.931c1.86-1.859,2.93-4.439,2.93-7.069
			C324.709,499.37,323.639,496.79,321.78,494.93z"/>
	</g>
</g>
<g>
	<g>
		<path d="M494.058,494.93c-1.86-1.861-4.44-2.93-7.07-2.93c-2.63,0-5.21,1.07-7.07,2.93s-2.93,4.44-2.93,7.07
			c0,2.63,1.07,5.21,2.93,7.069c1.86,1.861,4.44,2.931,7.07,2.931c2.63,0,5.21-1.07,7.07-2.931c1.86-1.859,2.93-4.439,2.93-7.069
			C496.988,499.37,495.918,496.79,494.058,494.93z"/>
	</g>
</g>
<g>
	<g>
		<path d="M421.426,140.999c-5.523,0-10,4.477-10,10v310.94c0,5.522,4.477,10,10,10s10-4.478,10-10v-310.94
			C431.426,145.476,426.949,140.999,421.426,140.999z"/>
	</g>
</g>
<g>
	<g>
		<path d="M428.499,97.703c-1.86-1.86-4.44-2.92-7.07-2.92c-2.64,0-5.22,1.06-7.07,2.92c-1.87,1.87-2.93,4.44-2.93,7.08
			c0,2.63,1.06,5.21,2.93,7.07c1.86,1.86,4.43,2.93,7.07,2.93c2.63,0,5.21-1.07,7.07-2.93s2.93-4.44,2.93-7.07
			C431.429,102.143,430.359,99.573,428.499,97.703z"/>
	</g>
</g>
<g>
	<g>
		<path d="M501.998,451.938h-20.94c20.521-57.232,30.923-117.697,30.923-179.963c0-91.401-22.958-180.551-66.391-257.811
			c-4.985-8.867-14.018-14.161-24.165-14.161c-10.147,0-19.18,5.293-24.164,14.161c-26.054,46.344-44.73,96.969-55.512,149.789
			c-24.107-48.265-55.059-91.874-92.266-129.944c-7.11-7.274-17.206-10.05-27.006-7.424s-17.156,10.078-19.676,19.932
			c-11.346,44.372-16.573,90.396-15.726,136.697c-0.013,0.241-0.039,0.48-0.034,0.724c0.567,28.968,3.557,58.089,8.886,86.877
			c0.039,0.213,0.079,0.426,0.119,0.638c0.463,2.486,0.944,4.969,1.442,7.45c0.06,0.299,0.119,0.599,0.179,0.898
			c0.534,2.633,1.083,5.263,1.656,7.89c0.01,0.047,0.02,0.095,0.03,0.142c0.569,2.606,1.153,5.209,1.76,7.808
			c0.008,0.036,0.022,0.07,0.031,0.106c1.326,5.673,2.743,11.333,4.255,16.978c13.262,49.493,33.165,96.231,59.217,139.211H128.001
			c-5.523,0-10,4.478-10,10s4.477,10,10,10h154.705c0.005,0,0.011,0.001,0.016,0.001s0.009-0.001,0.014-0.001h93.468h90.442h35.352
			c5.523,0,10-4.478,10-10S507.521,451.938,501.998,451.938z M222.179,51.473c1.016-3.974,4.168-5.218,5.476-5.568
			c1.307-0.351,4.658-0.85,7.526,2.084c29.739,30.428,55.306,64.562,76.412,101.89l-38.302,66.341l-66.297-38.277
			C206.623,135.088,211.678,92.537,222.179,51.473z M219.273,285.25c-0.463-2.086-0.906-4.175-1.343-6.265
			c-0.236-1.13-0.483-2.258-0.711-3.388c-0.58-2.869-1.13-5.742-1.661-8.618c-0.288-1.559-0.557-3.12-0.83-4.68
			c-0.267-1.522-0.53-3.045-0.783-4.569c-0.287-1.732-0.569-3.465-0.838-5.198c-0.197-1.265-0.382-2.532-0.57-3.798
			c-1.001-6.769-1.873-13.545-2.604-20.326c-0.07-0.645-0.141-1.29-0.209-1.936c-0.247-2.376-0.48-4.752-0.693-7.129
			c-0.027-0.302-0.052-0.603-0.078-0.905c-0.498-5.656-0.898-11.312-1.208-16.967l60.62,34.999l10.102,37.702
			c1.197,4.468,5.237,7.415,9.653,7.415c0.856,0,1.728-0.111,2.595-0.344c5.334-1.43,8.5-6.913,7.071-12.247l-10.102-37.703
			l35.018-60.651c4.638,9.172,9.034,18.511,13.152,28.031c-3.296,24.145-4.983,48.641-4.983,73.303
			c0,6.798,0.13,13.573,0.378,20.326c-0.441,0.497-0.839,1.047-1.184,1.645l-24.552,42.525l-85.866-49.575
			C219.522,286.348,219.395,285.799,219.273,285.25z M288.182,451.939c-27.091-42.345-47.817-88.708-61.683-137.992l77.673,44.845
			c1.575,0.909,3.294,1.342,4.991,1.342c3.456,0,6.817-1.794,8.669-5.002l15.858-27.467c4.356,42.679,13.758,84.265,28.103,124.274
			H288.182z M459.764,451.938h-76.679c-21.379-57.046-32.215-117.556-32.215-179.963c0-87.976,22.07-173.737,63.825-248.01
			c2.01-3.576,5.376-3.961,6.73-3.961s4.72,0.386,6.73,3.961c41.755,74.273,63.825,160.035,63.825,248.01
			C491.979,334.382,481.143,394.893,459.764,451.938z"/>
	</g>
</g>
<g>
</g>
<g>
</g>
<g>
</g>
<g>
</g>
<g>
</g>
<g>
</g>
<g>
</g>
<g>
</g>
<g>
</g>
<g>
</g>
<g>
</g>
<g>
</g>
<g>
</g>
<g>
</g>
<g>
</g>
</svg>
